<svg xmlns="http://www.w3.org/2000/svg" viewBox="0 0 268.321 268.321" style="enable-background:new 0 0 268.321 268.321" xml:space="preserve"><path d="m259.342 39.744.159-.154c9.298-9.305 9.598-24.138.668-33.07-4.204-4.204-9.86-6.52-15.92-6.52-6.421 0-12.514 2.553-17.152 7.188l-20.41 21.81-73-21.854-15.131 15.135a10.006 10.006 0 0 0-2.956 7.131 9.998 9.998 0 0 0 2.956 7.129l.664.664 52.728 29.018-7.715 8.372a105.071 105.071 0 0 0-33.85-14.282 105.794 105.794 0 0 0-23.479-2.652c-3.963 0-7.874.238-11.734.664l-.366-.406c-.172.154-.366.328-.555.505-43.823 5.198-79.893 37.113-89.931 81.18-6.252 27.427-1.446 55.647 13.528 79.458 14.974 23.809 38.329 40.362 65.758 46.609a105.8 105.8 0 0 0 23.479 2.652c49.415 0 91.602-33.689 102.589-81.927a105.884 105.884 0 0 0 2.643-25.89c.6-2.204.496-4.607-.436-7.224-1.49-16.284-6.776-32.106-15.735-46.347a101.522 101.522 0 0 0-3.415-5.061l7.832-7.219 29.254 53.151.67.668a10.03 10.03 0 0 0 7.122 2.945c2.687 0 5.211-1.045 7.12-2.947l15.14-15.137-21.999-73.498 21.474-20.091zM54.354 238.588c-10.012-6.968-18.622-15.935-25.313-26.574-11.901-18.924-16.429-41.032-13.054-62.915 5.897 1.589 11.851 3.937 14.137 5.57-.086.608-.181 1.226-.276 1.841-.884 5.738-2.22 14.405 4.845 19.548 6.183 4.497 11.842.291 14.423-1.883 1.036.835 2.165 1.666 3.326 2.524 1.812 1.336 5.008 3.695 6.157 5.13-.364 1.268-.899 2.766-1.422 4.226-2.052 5.731-4.175 11.654-.225 15.816 1.362 1.675 5.434 9.375 6.474 12.148-.022.924.046 1.975.134 3.344.093 1.411.298 4.592.088 5.886-.005-.001-8.024 10.099-7.561 12.491l-1.733 2.848zm142.422-55.138c-9.609 42.183-46.49 71.642-89.693 71.642-6.869 0-13.779-.78-20.542-2.321a92.487 92.487 0 0 1-23.404-8.798c6.454-5.458 12.04-14.225 12.124-14.366 1.957-3.307 1.845-7.698 1.497-13.096-.057-.904-.123-1.68-.11-2.178a3.459 3.459 0 0 1-.108.734c1.06-4.693-5.319-15.497-8.388-20.099.317-1.217.992-3.099 1.475-4.453.8-2.235 1.627-4.545 2.123-6.737 1.823-7.929-5.542-13.361-11.458-17.723-1.689-1.245-3.434-2.533-4.208-3.353-2.663-2.808-7.149-4.975-13.693-.104.117-1.4.362-2.985.529-4.078.22-1.424.434-2.846.571-4.215.761-7.673-7.523-13.764-24.579-18.122 9.355-30.96 33.747-54.121 64.081-62.189-1.353 3.304-2.423 7.124-2.914 11.571-.284 2.568-.652 4.894-.977 6.942-1.294 8.176-2.762 17.443 8.981 22.672 6.401 2.859 10.867 3.329 14.458 3.708 1.585.165 2.912.306 4.29.619.399 1.988.145 6.073.042 7.751-.145 2.343-.302 4.869.447 6.988.968 5.348 5.641 24.889 23.814 37.494-2.557 1.525-5.919 3.086-8.74 3.628-1.53.293-3.097.489-4.614.679-6.205.778-14.703 1.838-18.259 11.639-1.581 4.332-.555 7.486.584 9.369 2.83 4.68 8.337 5.418 12.358 5.956.648.086 1.558.209 2.105.317 2.489 1.823 10.257 6.986 18.309 6.986 3.639 0 7.336-1.056 10.632-3.948 1.325-1.124 7.607-1.051 10.632-1.012 6.401.075 12.446.15 16.303-3.75 1.894-1.918 2.861-4.422 2.795-7.25-.137-5.524 10.438-11.465 18.935-16.24 2.05-1.151 4.146-2.334 6.183-3.562a93.392 93.392 0 0 1-1.581 8.899zm2.175-25.667c-1.918 2.429-8.903 6.357-13.257 8.802-11.377 6.393-24.171 13.581-25.56 25.465-1.666.134-4.067.101-5.833.082-6.774-.075-14.432-.174-19.524 4.303-2.202 1.933-8.903-1.043-12.73-4.025-2.143-1.673-4.704-2.081-7.422-2.449 1.043-.265 2.55-.505 4.797-.783 1.644-.207 3.509-.439 5.462-.813 5.93-1.137 21.382-7.625 22.67-16.198.536-3.567-1.186-6.871-4.504-8.63-19.685-10.4-22.705-31.423-22.822-32.285l-.231-1.858c.024-.436.053-.908.077-1.314.392-6.309 1.12-18.054-8.147-20.891-3.073-.935-5.689-1.21-8-1.453-3.203-.335-5.967-.626-10.455-2.63-1.6-.712-1.933-1.182-1.933-1.182-.403-.827.194-4.592.63-7.341.348-2.196.741-4.682 1.06-7.561.857-7.737 3.974-12.596 6.948-15.88a94.328 94.328 0 0 1 6.73-.258c6.867 0 13.777.78 20.54 2.321a92.201 92.201 0 0 1 27.68 11.271l-.661.716a32.649 32.649 0 0 0-3.168 3.712l-23.648-6.122-10.369 10.372a9.144 9.144 0 0 0-2.705 6.518c0 2.467.959 4.786 2.703 6.529l.743.745 27.239 13.824.979.979 13.824 27.244.745.743a9.161 9.161 0 0 0 6.525 2.705 9.15 9.15 0 0 0 6.52-2.7l10.376-10.372-6.247-24.133a32.108 32.108 0 0 0 3.505-3.007l1.415-1.303c.693 1.002 1.389 2.002 2.044 3.043 8.434 13.409 13.153 28.421 14.004 43.814zm45.979-28.227-6.49 6.49-34.432-62.567-31.573 29.109-.187.179c-1.453 1.448-3.073 2.619-4.814 3.476l-4.823 2.381 6.924 26.737-1.032 1.032-11.421-22.504-3.955-3.959-22.502-11.416 1.029-1.029 26.351 6.822 2.354-4.902c.864-1.792 2.059-3.461 3.553-4.958l29.199-31.672-62.143-34.201 6.49-6.492 73.288 21.938 25.769-27.543c2.134-2.096 4.874-3.249 7.733-3.249 2.526 0 4.858.939 6.567 2.645 3.754 3.754 3.478 10.149-.6 14.297l-27.368 25.599 22.083 73.787z"/></svg>